# xmcd
#
# Track frame offsets:
#	182
#	13882
#	32557
#	50932
#	68557
#	84682
#	108532
#	123457
#	140032
#	152482
#	170257
#	184282
#	201382
#	220582
#	239257
#	253507
#	268957
#	287557
#	305482
#
# Disc length: 4289 seconds
#
# Revision: 1
# Processed by: cddbd v1.4PL0 Copyright (c) Steve Scherf et al.
# Submitted via: audiograbber 1.82.02
#
DISCID=1f10bf13
DTITLE=Various Artist - Looking Forward 2000 Muster Disk2
DYEAR=1900
DGENRE=
TTITLE0=Slim Dusty - Old Time Country Songs
TTITLE1=Brendon Walmsley - Rose and Rodeo
TTITLE2=Fisk and Christian - Dimboola
TTITLE3=Jim Haynes - McDougall Tops The Score
TTITLE4=Shaza Leigh - I'll Never Do That Again
TTITLE5=Pat Drummond - The Road To Damascus
TTITLE6=Raebekah Roycroft - That's What You Say Now
TTITLE7=Michael O'Rourke - Musta Had Fun At The Muster
TTITLE8=Tom Maxwell - Brown Bottle Blues
TTITLE9=Neil Duddy - The Lady I Adore
TTITLE10=Jeff Brown - He Looked To Be Australian To Me
TTITLE11=Vanya - I Know
TTITLE12=Graeme Jensen - Crosses
TTITLE13=Rough Stock - Goin Places
TTITLE14=Dean Perrett - Kings In Grass Castles
TTITLE15=Johnny Green's Blues Cowboys - The Lost Highway
TTITLE16=Topp Twins - Horse
TTITLE17=Greg Champion - Boomaroo Flyer
TTITLE18=Gerry Hale's Uncle Bill - Don't Drink The Water
EXTD=
EXTT0=
EXTT1=
EXTT2=
EXTT3=
EXTT4=
EXTT5=
EXTT6=
EXTT7=
EXTT8=
EXTT9=
EXTT10=
EXTT11=
EXTT12=
EXTT13=
EXTT14=
EXTT15=
EXTT16=
EXTT17=
EXTT18=
PLAYORDER=
